<?xml version="1.0" encoding="utf-8"?>
<!-- Generator: Adobe Illustrator 23.0.2, SVG Export Plug-In . SVG Version: 6.00 Build 0)  -->
<svg version="1.1" id="Livello_1" xmlns="http://www.w3.org/2000/svg" xmlns:xlink="http://www.w3.org/1999/xlink" x="0px" y="0px"
	 viewBox="0 0 1481.7 173.5" style="enable-background:new 0 0 1481.7 173.5;" xml:space="preserve">
<path d="M1436.7,34.3v-6.2h1.5v-8h-23.8v8h1.5v20c-16,10.6-32.2,21.1-48.4,31.5l3.6,3.6c-12.1-5.4-24.2-11-36.2-16.6l-19.8,10.6
	v-3.1h1.1V70h-16.8v4.1h1.1v10.9c-9.1,4.9-18.1,9.7-27.2,14.4l7.9-6.7l-49.4-44.9c-17.6,10.3-35.2,20.7-52.8,31
	c5.6-5.2,11.3-10.2,16.8-15.4l-5.5-6.7V30.9h4.7c-2.1-6.2-16.2-6.2-18.3,0h4.7v15l-24.4-29.8l-45.5,45.4L1058,20.7l-22.3,13.1v0
	l-56.8,38.7l52.6-41.6l-33-22.3l-32,22.3c7.6,4.2,13.6,9.5,21.2,13.7l-24.9-11.1L887.3,0L840,20.9V10h4.6V2.8h-29.7V10h4.6v19.9
	c-22.3,9.8-44.5,19.7-67,28.8l12-7.7L740.8,4c-14.9,10.1-29.9,20.2-45,30.3v-6.2h1.5v-8h-23.8v8h1.5v20
	c-16,10.6-32.2,21.1-48.4,31.5l3.6,3.6c-12.1-5.4-24.2-11-36.2-16.6l-19.8,10.6v-3.1h1.1V70h-16.8v4.1h1.1v10.9
	c-9.1,4.9-18.1,9.7-27.2,14.4l7.9-6.7l-49.4-44.9c-17.6,10.3-35.2,20.7-52.8,31c5.6-5.2,11.3-10.2,16.8-15.4l-5.5-6.7V30.9h4.7
	c-2.1-6.2-16.2-6.2-18.3,0h4.7v15l-24.4-29.8l-45.5,45.4l-53.5-40.8l-22.3,13.1l0,0L238,72.5l52.6-41.6l-33-22.3l-32,22.3
	c0,0,13.6,9.5,21.2,13.7l-24.9-11.1L146.5,0L99.1,20.9V10h4.6V2.8H74.1V10h4.6v19.9L0,64.5v109h148.2h27.4h21.1h208H423h493.4h21.1
	h208h18.3h94.7h38h80.5h18.3h74.3h12V4C1466.7,14.1,1451.8,24.2,1436.7,34.3z M185.3,147.2c0.7,0,1.4,0,2.2,0H185.3z M631.3,122.9
	l-47.3,18.9l46.5-23.6l63.9,24.2L631.3,122.9z M926.1,147.2c0.7,0,1.4,0,2.2,0H926.1z M1383.6,147.2c1.8-0.4,3.7-0.4,5.4,0H1383.6z
	 M1362.6,124.5l-47.3,18.9l46.5-23.6l63.9,24.2L1362.6,124.5z"/>
</svg>
