<?xml version="1.0" encoding="utf-8"?>
<!-- Generator: Adobe Illustrator 23.0.2, SVG Export Plug-In . SVG Version: 6.00 Build 0)  -->
<svg version="1.1" id="Livello_1" xmlns="http://www.w3.org/2000/svg" xmlns:xlink="http://www.w3.org/1999/xlink" x="0px" y="0px"
	 viewBox="0 0 1481.7 173.5" style="enable-background:new 0 0 1481.7 173.5;" xml:space="preserve">
<path d="M1436.7,34.3v-6.2h1.5v-8h-23.8v8h1.5v20c-16,10.6-32.2,21.1-48.4,31.5l3.6,3.6c-12.1-5.4-24.2-11-36.2-16.6l-19.8,10.6
	v-3.1h1.1V70h-16.8v4.1h1.1v10.9c-9.1,4.9-18.1,9.7-27.2,14.4l7.9-6.7l-49.4-44.9c-17.6,10.3-35.2,20.7-52.8,31
	c5.6-5.2,11.3-10.2,16.8-15.4l-5.5-6.7V30.9h4.7c-2.1-6.2-16.2-6.2-18.3,0h4.7v15l-24.4-29.8l-45.5,45.4L1058,20.7l-22.3,13.1v0
	l-56.8,38.7l52.6-41.6l-33-22.3l-32,22.3c7.6,4.2,13.6,9.5,21.2,13.7l-24.9-11.1L887.3,0L840,20.9V10h4.6V2.8h-29.7V10h4.6v19.9
	c-22.3,9.8-44.5,19.7-67,28.8l12-7.7L740.8,4c-14.9,10.1-29.9,20.2-45,30.3v-6.2h1.5v-8h-23.8v8h1.5v20
	c-16,10.6-32.2,21.1-48.4,31.5l3.6,3.6c-12.1-5.4-24.2-11-36.2-16.6l-19.8,10.6v-3.1h1.1V70h-16.8v4.1h1.1v10.9
	c-9.1,4.9-18.1,9.7-27.2,14.4l7.9-6.7l-49.4-44.9c-17.6,10.3-35.2,20.7-52.8,31c5.6-5.2,11.3-10.2,16.8-15.4l-5.5-6.7V30.9h4.7
	c-2.1-6.2-16.2-6.2-18.3,0h4.7v15l-24.4-29.8l-45.5,45.4l-53.5-40.8l-22.3,13.1l0,0L238,72.5l52.6-41.6l-33-22.3l-35.7,24.9l3.7-2.6
	c7.6,4.2,13.6,9.5,21.2,13.7l-24.9-11.1L146.5,0L99.1,20.9V10h4.6V2.8H74.1V10h4.6v19.9L0,64.5v109h175.6v-19.7
	c0-8.6,21.1-9.1,21.1,0v19.7h208l0-13.3c0-7.2,18.3-7.7,18.3,0l0,13.3h493.4v-19.7c0-8.6,21.1-9.1,21.1,0v19.7h208l0-13.3
	c0-7.2,18.3-7.7,18.3,0l0,13.3H1377l0-18.8c0-10.2,18.3-10.8,18.3,0l0,18.8h86.4V4C1466.7,14.1,1451.8,24.2,1436.7,34.3z
	 M1005.6,37.5h-14.3C991.2,28.1,1005.6,28.1,1005.6,37.5z M264.7,37.5h-14.3C250.4,28.1,264.7,28.1,264.7,37.5z M60.3,148.2H47.2
	v-13.1h13.1V148.2z M60.3,130.5H47.2v-13.1h13.1V130.5z M78,148.2H65v-13.1H78V148.2z M78,130.5H65v-13.1H78V130.5z M127.5,88.5
	h-10.8V77.7h10.8V88.5z M127.5,73.8h-10.8V63.1h10.8V73.8z M142.1,88.5h-10.7V77.7h10.7V88.5z M142.1,73.8h-10.7V63.1h10.7V73.8z
	 M157.8,159.4h-13.3v-13.3h13.3V159.4z M158.9,88.5h-10.7V77.7h10.7V88.5z M158.9,73.8h-10.7V63.1h10.7V73.8z M173.6,88.5h-10.8
	V77.7h10.8V88.5z M173.6,73.8h-10.8V63.1h10.8V73.8z M296.2,145.9h-8.3v-8.3h8.3V145.9z M296.2,134.7h-8.3v-8.3h8.3V134.7z
	 M296.2,106.9h-8.3v-8.3h8.3V106.9z M296.2,95.6h-8.3v-8.3h8.3V95.6z M307.4,145.9h-8.3v-8.3h8.3V145.9z M307.4,134.7h-8.3v-8.3h8.3
	V134.7z M307.4,106.9h-8.3v-8.3h8.3V106.9z M307.4,95.6h-8.3v-8.3h8.3V95.6z M314.4,53.6c-4.2,0-7.7-3.4-7.7-7.7
	c0-4.2,3.4-7.7,7.7-7.7c4.2,0,7.7,3.4,7.7,7.7C322.1,50.2,318.7,53.6,314.4,53.6z M335.2,145.9H327v-8.3h8.3V145.9z M335.2,134.7
	H327v-8.3h8.3V134.7z M335.2,106.9H327v-8.3h8.3V106.9z M335.2,95.6H327v-8.3h8.3V95.6z M346.5,145.9h-8.3v-8.3h8.3V145.9z
	 M346.5,134.7h-8.3v-8.3h8.3V134.7z M346.5,106.9h-8.3v-8.3h8.3V106.9z M346.5,95.6h-8.3v-8.3h8.3V95.6z M411.9,113.8h-10.7v-10.7
	h10.7V113.8z M411.9,99.2h-10.7V88.5h10.7V99.2z M426.5,113.8h-10.7v-10.7h10.7V113.8z M426.5,99.2h-10.7V88.5h10.7V99.2z
	 M484,125.3h-8.3V117h8.3V125.3z M484,114h-8.3v-8.3h8.3V114z M495.2,125.3h-8.3V117h8.3V125.3z M495.2,114h-8.3v-8.3h8.3V114z
	 M535.4,168.2H527v-8.5h8.5V168.2z M535.4,156.7H527v-8.5h8.5V156.7z M547,168.2h-8.5v-8.5h8.5V168.2z M547,156.7h-8.5v-8.5h8.5
	V156.7z M595.7,88.5h8.3v8.3h-8.3V88.5z M595.7,99.7h8.3v8.3h-8.3V99.7z M584.5,88.5h8.3v8.3h-8.3V88.5z M584.5,99.7h8.3v8.3h-8.3
	V99.7z M630.2,152.6H622v-8.3h8.3V152.6z M630.2,141.4H622v-8.3h8.3V141.4z M641.5,152.6h-8.3v-8.3h8.3V152.6z M641.5,141.4h-8.3
	v-8.3h8.3V141.4z M631.3,122.9l-47.3,18.9l46.5-23.6l63.9,24.2L631.3,122.9z M697.3,118.3h-12.7v-12.7h12.7V118.3z M697.3,101.1
	h-12.7V88.5h12.7V101.1z M714.5,118.3h-12.7v-12.7h12.7V118.3z M714.5,101.1h-12.7V88.5h12.7V101.1z M801.1,148.2h-13.1v-13.1h13.1
	V148.2z M801.1,130.5h-13.1v-13.1h13.1V130.5z M818.9,148.2h-13.1v-13.1h13.1V148.2z M818.9,130.5h-13.1v-13.1h13.1V130.5z
	 M868.4,88.5h-10.7V77.7h10.7V88.5z M868.4,73.8h-10.7V63.1h10.7V73.8z M883,88.5h-10.7V77.7H883V88.5z M883,73.8h-10.7V63.1H883
	V73.8z M898.6,159.4h-13.3v-13.3h13.3V159.4z M899.8,88.5H889V77.7h10.8V88.5z M899.8,73.8H889V63.1h10.8V73.8z M914.4,88.5h-10.7
	V77.7h10.7V88.5z M914.4,73.8h-10.7V63.1h10.7V73.8z M969.7,145.9H959v-10.7h10.7V145.9z M969.7,131.4H959v-10.7h10.7V131.4z
	 M984.2,145.9h-10.7v-10.7h10.7V145.9z M984.2,131.4h-10.7v-10.7h10.7V131.4z M1014.7,145.9H1004v-10.7h10.7V145.9z M1014.7,131.4
	H1004v-10.7h10.7V131.4z M1029.2,145.9h-10.7v-10.7h10.7V145.9z M1029.2,131.4h-10.7v-10.7h10.7V131.4z M1053.6,66.9h-16.7v-0.1
	l16.7-17.5V66.9z M1074.9,66.9h-16.7V49.4L1074.9,66.9L1074.9,66.9z M1098.1,159.6h-13.3v-13.3h13.3V159.6z M1115.5,159.6h-13.3
	v-13.3h13.3V159.6z M1152.7,113.8H1142v-10.7h10.7V113.8z M1152.7,99.2H1142V88.5h10.7V99.2z M1167.3,113.8h-10.8v-10.7h10.8V113.8z
	 M1167.3,99.2h-10.8V88.5h10.8V99.2z M1224.8,125.3h-8.3V117h8.3V125.3z M1224.8,114h-8.3v-8.3h8.3V114z M1236,125.3h-8.3V117h8.3
	V125.3z M1236,114h-8.3v-8.3h8.3V114z M1276.3,168.2h-8.5v-8.5h8.5V168.2z M1276.3,156.7h-8.5v-8.5h8.5V156.7z M1287.8,168.2h-8.5
	v-8.5h8.5V168.2z M1287.8,156.7h-8.5v-8.5h8.5V156.7z M1336.6,88.5h8.3v8.3h-8.3V88.5z M1336.6,99.7h8.3v8.3h-8.3V99.7z
	 M1325.3,88.5h8.3v8.3h-8.3V88.5z M1325.3,99.7h8.3v8.3h-8.3V99.7z M1358.6,144h-8.5v-8.5h8.5V144z M1373.1,144h-8.5v-8.5h8.5V144z
	 M1362.6,124.5l-47.3,18.9l46.5-23.6l63.9,24.2L1362.6,124.5z M1438.1,118.3h-12.7v-12.7h12.7V118.3z M1438.1,101.1h-12.7V88.5h12.7
	V101.1z M1455.3,118.3h-12.7v-12.7h12.7V118.3z M1455.3,101.1h-12.7V88.5h12.7V101.1z"/>
</svg>
