<?xml version="1.0" encoding="utf-8"?>
<!-- Generator: Adobe Illustrator 23.0.2, SVG Export Plug-In . SVG Version: 6.00 Build 0)  -->
<svg version="1.1"
	 id="svg2" xmlns:cc="http://creativecommons.org/ns#" xmlns:dc="http://purl.org/dc/elements/1.1/" xmlns:inkscape="http://www.inkscape.org/namespaces/inkscape" xmlns:rdf="http://www.w3.org/1999/02/22-rdf-syntax-ns#" xmlns:sodipodi="http://sodipodi.sourceforge.net/DTD/sodipodi-0.dtd" xmlns:svg="http://www.w3.org/2000/svg"
	 xmlns="http://www.w3.org/2000/svg" xmlns:xlink="http://www.w3.org/1999/xlink" x="0px" y="0px" viewBox="0 0 551.4 243.5"
	 style="enable-background:new 0 0 551.4 243.5;" xml:space="preserve">
<sodipodi:namedview  bordercolor="#666666" borderopacity="1.0" id="base" inkscape:current-layer="g141" inkscape:cx="164.75587" inkscape:cy="441.81188" inkscape:document-units="px" inkscape:pageopacity="0.0" inkscape:pageshadow="2" inkscape:window-height="715" inkscape:window-maximized="1" inkscape:window-width="1366" inkscape:window-x="-8" inkscape:window-y="-8" inkscape:zoom="0.7" pagecolor="#ffffff" showgrid="false">
	</sodipodi:namedview>
<polygon points="545.1,221 545.1,225.7 535.1,225.7 535.1,216.2 523.1,216.2 523.1,209.9 506.8,209.9 506.8,199.9 496.3,199.9 
	496.3,218.8 488.4,218.8 488.4,203.6 484.2,203.6 484.2,213.1 467.4,213.1 467.4,221 460.6,221 460.6,212 451.6,212 451.6,203.6 
	441.1,203.6 441.1,196.3 427,196.3 427,200.5 420.7,200.5 420.7,187.3 418.6,187.3 418.6,210.4 412.8,210.4 412.8,201 406,201 
	406,207.8 401.2,207.8 401.2,215.7 394.4,215.7 394.4,187.3 377.6,187.3 377.6,194.2 369.2,194.2 369.2,179.5 365.5,179.5 
	365.5,204.1 349.8,204.1 349.8,181.6 346.1,181.6 346.1,161.6 341.9,161.6 341.9,152.7 330.9,152.7 330.9,161.6 327.7,161.6 
	327.7,179.5 323,179.5 323,194.7 304.6,194.7 304.6,165.8 300.4,165.8 300.4,157.9 296.7,157.9 296.7,149.4 291.5,149.4 
	291.5,128.5 287.3,128.5 287.3,149.4 283.6,149.4 283.6,155.8 279.9,155.8 279.9,165.3 274.1,165.3 274.1,194.2 260,194.2 
	260,204.1 252.1,204.1 252.1,178.4 234.2,178.4 234.2,155.8 229,155.8 229,149.4 216.9,149.4 216.9,155.3 213.2,155.3 213.2,160.6 
	209,160.6 209,197.8 202.7,197.8 202.7,189.4 192.7,189.4 192.7,156.4 168.6,156.4 168.6,179.5 159.1,179.5 159.1,157.9 
	143.4,157.9 143.4,191.5 135,191.5 135,159.5 120.3,159.5 120.3,165.8 116.1,165.8 116.1,177.9 111.3,177.9 111.3,191 102.9,191 
	102.9,154.3 87.7,154.3 87.7,149.4 82.4,149.4 82.4,160.6 78.8,160.6 78.8,186.3 72.5,186.3 72.5,170.5 53.6,170.5 53.6,163.2 
	39.9,163.2 39.9,172.6 26.8,172.6 26.8,224.1 23.1,224.1 23.1,229.9 13.7,229.9 13.7,221.5 0,221.5 0,243.5 551.4,243.5 551.4,221 
	"/>
</svg>
